<?xml version="1.0" encoding="UTF-8" standalone="no"?>
<svg
   xmlns:dc="http://purl.org/dc/elements/1.1/"
   xmlns:cc="http://creativecommons.org/ns#"
   xmlns:rdf="http://www.w3.org/1999/02/22-rdf-syntax-ns#"
   xmlns:svg="http://www.w3.org/2000/svg"
   xmlns="http://www.w3.org/2000/svg"
   xmlns:sodipodi="http://sodipodi.sourceforge.net/DTD/sodipodi-0.dtd"
   xmlns:inkscape="http://www.inkscape.org/namespaces/inkscape"
   width="208"
   height="208"
   viewBox="0 0 208 208"
   version="1.1"
   id="svg3771"
   sodipodi:docname="whitelogo.svg"
   inkscape:export-filename="C:\Users\benmy\OneDrive\Documents\Markfast\resources\black logo.png"
   inkscape:export-xdpi="96"
   inkscape:export-ydpi="96"
   inkscape:version="0.92.3 (2405546, 2018-03-11)">
  <metadata
     id="metadata3777">
    <rdf:RDF>
      <cc:Work
         rdf:about="">
        <dc:format>image/svg+xml</dc:format>
        <dc:type
           rdf:resource="http://purl.org/dc/dcmitype/StillImage" />
        <dc:title></dc:title>
      </cc:Work>
    </rdf:RDF>
  </metadata>
  <defs
     id="defs3775" />
  <sodipodi:namedview
     pagecolor="#ffffff"
     bordercolor="#666666"
     borderopacity="1"
     objecttolerance="10"
     gridtolerance="10"
     guidetolerance="10"
     inkscape:pageopacity="0"
     inkscape:pageshadow="2"
     inkscape:window-width="1920"
     inkscape:window-height="1001"
     id="namedview3773"
     showgrid="false"
     inkscape:zoom="2.3048961"
     inkscape:cx="23.459508"
     inkscape:cy="71.647813"
     inkscape:window-x="-9"
     inkscape:window-y="-9"
     inkscape:window-maximized="1"
     inkscape:current-layer="svg3771" />
  <path
     style="fill:#ffffff;fill-opacity:0.94117647;stroke:none;stroke-width:10.50505066"
     d="M 10.505859 42.019531 C 4.6860617 42.019531 -1.1842379e-015 46.705593 0 52.525391 L 0 155.47461 C 0 161.29441 4.6860617 165.98047 10.505859 165.98047 L 197.49414 165.98047 C 203.31394 165.98047 208 161.29441 208 155.47461 L 208 52.525391 C 208 46.705593 203.31394 42.019531 197.49414 42.019531 L 10.505859 42.019531 z M 26.261719 68.283203 L 47.273438 68.283203 L 68.283203 94.544922 L 89.292969 68.283203 L 110.30273 68.283203 L 110.30273 139.7168 L 89.292969 139.7168 L 89.292969 98.748047 L 68.283203 125.00977 L 47.273438 98.748047 L 47.273438 139.7168 L 26.261719 139.7168 L 26.261719 68.283203 z M 167.97852 73.287109 L 163.32617 102.06836 L 179.30273 101.76758 L 153.73828 135.21484 L 155.64844 110.77539 L 138.98828 110.20117 L 167.97852 73.287109 z "
     id="rect3767" />
</svg>
